<svg id="visual" viewBox="0 0 900 900" width="900" height="900" xmlns="http://www.w3.org/2000/svg" xmlns:xlink="http://www.w3.org/1999/xlink" version="1.1"><rect x="0" y="0" width="900" height="900" fill="#140021"></rect><path d="M473 900L490 900L490 771L444 771L444 643L564 643L564 514L456 514L456 386L478 386L478 257L462 257L462 129L474 129L474 0L900 0L900 129L900 129L900 257L900 257L900 386L900 386L900 514L900 514L900 643L900 643L900 771L900 771L900 900L900 900Z" fill="#560090"></path><path d="M637 900L670 900L670 771L537 771L537 643L657 643L657 514L555 514L555 386L549 386L549 257L577 257L577 129L584 129L584 0L900 0L900 129L900 129L900 257L900 257L900 386L900 386L900 514L900 514L900 643L900 643L900 771L900 771L900 900L900 900Z" fill="#7700c6"></path><path d="M705 900L691 900L691 771L732 771L732 643L727 643L727 514L727 514L727 386L812 386L812 257L714 257L714 129L674 129L674 0L900 0L900 129L900 129L900 257L900 257L900 386L900 386L900 514L900 514L900 643L900 643L900 771L900 771L900 900L900 900Z" fill="#9900ff"></path></svg>